<?xml version="1.0" standalone="no"?>
<!DOCTYPE svg PUBLIC "-//W3C//DTD SVG 20010904//EN"
 "http://www.w3.org/TR/2001/REC-SVG-20010904/DTD/svg10.dtd">
<svg version="1.0" xmlns="http://www.w3.org/2000/svg"
 width="319.000000pt" height="142.000000pt" viewBox="0 0 319.000000 142.000000"
 preserveAspectRatio="xMidYMid meet">
<metadata>
Created by potrace 1.16, written by Peter Selinger 2001-2019
</metadata>
<g transform="translate(0.000000,142.000000) scale(0.100000,-0.100000)"
fill="#000000" stroke="none">
<path d="M312 971 c-8 -5 -12 -21 -10 -37 2 -23 -1 -30 -18 -32 -18 -3 -21 1
-17 25 4 27 4 27 -12 8 -9 -11 -18 -31 -21 -45 -3 -14 -11 -36 -17 -48 -11
-24 -11 -24 -22 9 -8 23 -14 29 -19 20 -5 -8 -3 -16 4 -21 9 -6 11 -23 7 -59
-4 -32 -2 -49 3 -46 6 4 10 -10 11 -32 1 -37 1 -36 17 20 9 31 21 56 26 54 6
-2 15 -24 22 -48 6 -25 17 -54 23 -65 11 -17 12 -17 6 6 -4 14 -9 43 -10 65
-2 22 -1 30 1 18 6 -26 24 -31 24 -8 0 23 35 87 59 109 28 26 27 33 -9 41 -26
6 -30 10 -24 28 4 12 11 25 16 28 5 3 2 9 -7 13 -20 7 -17 8 -33 -3z"/>
<path d="M1261 959 c11 -22 12 -49 0 -49 -5 0 -12 11 -15 25 -4 14 -13 25 -22
25 -14 0 -14 -2 0 -16 23 -22 20 -31 -9 -31 -13 0 -23 2 -23 6 1 3 -2 17 -6
30 -8 23 -9 23 -21 7 -7 -9 -16 -17 -19 -17 -22 3 -26 -3 -26 -34 0 -37 -13
-46 -28 -19 -6 11 -12 13 -16 6 -8 -14 14 -63 26 -56 4 3 5 10 2 16 -4 6 -2 8
4 4 7 -4 6 -15 -4 -34 -20 -39 -19 -44 31 -85 48 -41 62 -35 20 8 -14 14 -22
25 -17 25 5 0 15 -7 22 -15 7 -8 19 -15 27 -15 13 0 13 3 3 16 -11 12 -11 15
0 12 7 -2 25 17 39 42 15 25 42 55 61 68 20 14 27 22 16 22 -11 0 -16 8 -16
26 0 16 4 23 11 18 8 -5 9 -2 1 11 -5 10 -19 19 -30 20 -17 1 -19 -2 -11 -16z"/>
<path d="M2281 963 c-1 -6 4 -15 9 -18 6 -4 7 -11 4 -17 -4 -6 0 -14 7 -19 11
-7 9 -9 -7 -9 -17 0 -20 -5 -16 -31 3 -22 1 -30 -7 -25 -6 4 -11 2 -11 -3 0
-6 5 -11 10 -11 6 0 10 -8 10 -17 0 -26 23 -83 33 -83 5 0 7 9 4 21 -7 26 29
113 43 104 5 -3 10 -1 10 5 0 6 5 8 10 5 18 -11 11 -27 -10 -22 -13 3 -20 0
-20 -10 0 -8 4 -12 9 -9 5 4 11 0 14 -6 6 -18 -14 -59 -26 -51 -5 3 -4 9 3 13
7 4 9 13 6 19 -4 6 -12 8 -18 5 -14 -9 0 -73 24 -106 11 -16 18 -36 16 -46 -3
-12 -10 -5 -26 26 -23 44 -41 54 -43 25 0 -15 -2 -15 -9 2 -8 19 -9 19 -9 -3
-1 -14 -5 -21 -12 -16 -7 4 -9 0 -6 -12 3 -11 8 -41 12 -68 3 -26 12 -55 20
-63 8 -8 15 -19 15 -24 0 -5 9 -9 20 -9 12 0 20 -7 20 -16 0 -15 -2 -15 -24
-1 -13 9 -26 14 -28 12 -9 -10 28 -165 40 -165 6 0 12 7 12 17 0 15 1 15 18 0
23 -21 61 -22 68 -2 4 8 11 12 16 9 6 -4 8 -1 6 7 -3 8 -11 13 -17 11 -6 -1
-11 13 -11 34 0 30 -3 34 -14 25 -7 -6 -12 -24 -10 -41 6 -48 -13 -34 -20 15
-9 55 -1 86 20 78 7 -3 14 -11 14 -19 0 -8 4 -14 9 -14 12 0 3 62 -20 139 -24
80 -24 102 1 134 17 22 18 26 5 37 -8 7 -16 9 -16 4 -1 -5 -2 -13 -3 -19 0 -5
-7 -21 -15 -35 l-14 -24 -8 22 c-9 24 -2 52 13 52 5 0 6 5 3 10 -3 6 -3 10 2
10 4 0 9 11 10 25 5 56 8 65 15 65 4 0 9 -19 10 -42 l1 -43 7 45 c9 60 20 91
31 84 15 -9 10 4 -8 26 -24 28 -39 25 -52 -10 -5 -17 -17 -30 -26 -30 -10 0
-13 -5 -9 -12 4 -6 3 -8 -4 -4 -6 3 -17 0 -24 -8 -12 -12 -14 -9 -14 20 1 19
4 34 7 34 3 0 6 6 6 14 0 14 -14 16 -34 3 -6 -4 -14 -1 -16 5 -4 9 -6 10 -6 1z"/>
<path d="M2560 834 c-7 -22 -15 -32 -19 -25 -5 8 -13 5 -26 -9 -16 -18 -17
-25 -6 -76 8 -35 9 -59 3 -63 -10 -7 -9 -97 2 -122 6 -14 12 -15 37 -6 16 6
29 15 29 20 0 4 5 5 11 1 8 -4 9 3 4 25 -4 21 -3 31 5 31 7 0 9 8 4 23 -4 12
-7 29 -6 37 2 32 -9 60 -23 60 -8 0 -19 9 -25 20 -6 11 -15 18 -21 15 -5 -4
-9 -2 -9 3 0 5 10 12 22 15 25 7 41 -10 32 -33 -3 -8 -2 -11 2 -7 4 4 13 -1
20 -11 12 -15 13 -14 14 10 0 40 -20 128 -30 128 -5 0 -14 -16 -20 -36z"/>
<path d="M1985 665 c1 -44 5 -101 7 -127 4 -39 2 -45 -11 -40 -24 8 -31 23
-31 64 0 20 -5 40 -10 43 -10 6 -4 -190 6 -207 2 -3 0 -9 -6 -13 -5 -3 -10 0
-10 8 0 17 -33 33 -38 19 -4 -13 -62 9 -63 23 0 5 -5 1 -10 -10 -7 -16 -9 -14
-6 13 2 17 0 32 -4 32 -4 0 -3 14 2 32 5 17 7 34 4 36 -6 6 -25 -44 -25 -66 0
-15 -2 -15 -10 -2 -22 35 -4 -52 23 -107 15 -33 69 -32 87 2 17 32 29 32 22 0
-5 -30 7 -32 36 -5 24 22 29 50 10 50 -7 0 -5 7 5 18 15 17 15 19 0 35 -10 9
-12 17 -6 17 6 0 14 -6 16 -12 4 -10 8 -10 15 1 8 11 10 11 15 0 4 -10 6 -8 6
4 1 21 25 18 27 -4 3 -32 5 -32 19 -1 8 18 12 39 9 46 -3 8 -1 17 5 20 6 4 7
14 4 22 -6 16 12 34 32 34 6 0 3 -5 -5 -10 -8 -5 -10 -10 -5 -10 6 0 9 -19 6
-46 -2 -34 0 -45 8 -39 14 8 13 135 -1 135 -15 0 -42 -31 -59 -67 l-16 -35
-11 29 c-7 15 -18 66 -26 113 l-15 85 4 -80z"/>
<path d="M1395 578 c2 -35 13 -92 25 -127 23 -67 21 -78 -7 -66 -10 5 -24 7
-30 6 -7 -1 -13 5 -13 14 0 9 4 14 9 10 5 -3 12 -1 16 5 3 5 2 10 -3 10 -6 0
-12 15 -15 33 -8 50 -25 104 -25 82 -1 -11 3 -41 7 -67 9 -55 -1 -63 -17 -15
l-12 32 6 -38 c4 -27 2 -37 -8 -35 -14 3 -16 -25 -3 -56 6 -14 5 -17 -4 -12
-7 5 -16 18 -21 30 -8 18 -9 17 -9 -12 l-1 -33 63 6 c45 5 58 4 47 -4 -22 -16
0 -13 32 3 15 8 29 10 32 5 2 -5 3 -4 2 3 -2 7 1 23 5 36 6 16 6 21 -2 16 -7
-4 -9 0 -5 12 3 11 -5 43 -19 72 -13 29 -27 75 -31 102 -9 71 -23 62 -19 -12z"/>
<path d="M614 518 c12 -32 12 -36 0 -31 -8 3 -14 -1 -14 -7 0 -9 -7 -7 -20 5
-18 16 -20 16 -20 2 0 -11 -8 -17 -25 -17 -16 0 -25 -6 -25 -15 0 -8 -4 -15
-10 -15 -5 0 -10 -7 -10 -16 0 -10 -5 -14 -16 -10 -8 3 -12 2 -9 -4 3 -5 -6
-20 -21 -33 l-26 -24 47 -6 c58 -8 111 16 146 67 23 34 24 35 31 13 3 -12 6
-37 7 -54 1 -18 6 -33 11 -33 14 0 13 18 -5 76 -8 27 -15 59 -15 70 0 12 -9
32 -20 45 l-21 24 15 -37z"/>
<path d="M1550 505 c-4 -11 -16 -38 -26 -60 -34 -75 -34 -76 -24 -70 6 3 10
-1 10 -10 0 -9 -4 -13 -10 -10 -5 3 -10 1 -10 -5 0 -7 24 -10 72 -8 l72 3 23
80 c12 44 23 83 23 87 0 3 -28 8 -61 10 -54 3 -62 1 -69 -17z"/>
</g>
</svg>
